<?xml version="1.0" standalone="no"?>
<!DOCTYPE svg PUBLIC "-//W3C//DTD SVG 20010904//EN"
 "http://www.w3.org/TR/2001/REC-SVG-20010904/DTD/svg10.dtd">
<svg version="1.0" xmlns="http://www.w3.org/2000/svg"
 width="1052.000000pt" height="1280.000000pt" viewBox="0 0 1052.000000 1280.000000"
 preserveAspectRatio="xMidYMid meet">
<metadata>
Created by potrace 1.15, written by Peter Selinger 2001-2017
</metadata>
<g transform="translate(0.000000,1280.000000) scale(0.100000,-0.100000)"
fill="#000000" stroke="none">
<path d="M4695 12570 c-1392 -3 -2415 -7 -2275 -9 140 -3 233 -6 205 -8 -27
-1 -176 -9 -330 -18 -731 -40 -1199 -75 -1450 -110 -179 -24 -195 -27 -201
-36 -3 -5 -16 -9 -28 -9 -13 0 -29 -7 -36 -15 -8 -10 -31 -15 -71 -15 l-59 0
0 -58 c0 -32 -6 -66 -14 -77 -7 -11 -16 -31 -19 -45 -3 -14 -11 -44 -16 -68
-36 -139 -85 -723 -121 -1437 -6 -110 -15 -265 -20 -345 -5 -80 -11 -197 -12
-260 -1 -63 -5 2 -8 145 -3 143 -7 -491 -8 -1410 -1 -918 -5 -2821 -9 -4227
l-6 -2558 964 -2 964 -3 3 -894 2 -894 2297 6 c1263 4 2857 8 3542 9 685 1
1140 5 1011 8 -129 3 -187 7 -128 8 58 1 186 9 285 17 98 8 277 21 398 30 121
8 267 20 325 26 266 26 282 35 299 163 19 145 30 267 46 511 9 132 22 323 30
425 8 102 16 226 17 275 1 50 5 -4 8 -120 6 -241 20 5034 20 7537 l0 1678
-962 2 -963 3 -3 892 -2 892 -573 -2 c-314 -1 -1710 -4 -3102 -7z m-1957 -17
c-10 -2 -28 -2 -40 0 -13 2 -5 4 17 4 22 1 32 -1 23 -4z"/>
<path d="M232 10500 c0 -19 2 -27 5 -17 2 9 2 25 0 35 -3 9 -5 1 -5 -18z"/>
</g>
</svg>
