<?xml version="1.0" standalone="no"?>
<!DOCTYPE svg PUBLIC "-//W3C//DTD SVG 20010904//EN"
 "http://www.w3.org/TR/2001/REC-SVG-20010904/DTD/svg10.dtd">
<svg version="1.0" xmlns="http://www.w3.org/2000/svg"
 width="1144.000000pt" height="1280.000000pt" viewBox="0 0 1144.000000 1280.000000"
 preserveAspectRatio="xMidYMid meet">
<metadata>
Created by potrace 1.15, written by Peter Selinger 2001-2017
</metadata>
<g transform="translate(0.000000,1280.000000) scale(0.100000,-0.100000)"
fill="#000000" stroke="none">
<path d="M9725 12794 c-554 -59 -1075 -398 -1334 -868 -59 -106 -190 -422
-371 -891 -164 -426 -240 -605 -359 -850 -267 -548 -532 -926 -926 -1320 -201
-202 -295 -281 -724 -614 -208 -161 -328 -248 -335 -243 -183 139 -628 490
-706 556 -141 120 -413 394 -531 536 -264 318 -461 625 -655 1024 -123 255
-185 402 -370 884 -231 599 -323 815 -402 941 -253 404 -652 678 -1142 782
-89 19 -136 23 -305 23 -171 0 -215 -3 -305 -22 -224 -49 -444 -139 -596 -243
-500 -346 -762 -1063 -628 -1719 82 -400 224 -684 472 -941 51 -54 123 -122
160 -152 330 -268 742 -397 1107 -346 168 23 432 103 570 171 129 65 183 106
306 230 139 140 203 178 305 178 56 0 68 -4 123 -41 114 -76 225 -241 472
-700 365 -680 466 -862 652 -1168 136 -225 328 -520 477 -731 68 -96 124 -183
124 -192 1 -9 -728 -1046 -1619 -2304 -891 -1257 -1639 -2318 -1663 -2358
-104 -172 -225 -434 -282 -614 -183 -569 -154 -1084 86 -1567 103 -207 72
-212 259 43 88 120 1049 1427 2135 2905 1550 2110 1977 2684 1986 2675 7 -7
969 -1322 2139 -2923 1170 -1600 2132 -2914 2137 -2920 14 -15 39 23 112 170
220 441 261 928 120 1441 -60 221 -152 442 -274 659 -43 77 -655 954 -1710
2450 -904 1282 -1643 2335 -1643 2340 0 6 49 78 108 160 377 528 647 971 1075
1765 329 611 407 739 519 851 113 112 190 130 313 72 55 -26 87 -52 175 -143
192 -199 353 -283 719 -376 145 -38 153 -39 329 -39 152 0 196 4 284 23 290
65 544 206 775 431 196 191 330 394 419 631 115 310 158 632 123 920 -68 556
-365 1022 -792 1242 -111 57 -324 132 -458 159 -99 20 -354 33 -451 23z m410
-563 c166 -44 394 -179 505 -298 196 -209 292 -492 277 -813 -12 -254 -78
-466 -205 -662 -157 -239 -431 -425 -722 -488 -387 -85 -808 31 -1076 297
-121 120 -212 275 -255 438 -31 114 -38 374 -14 500 47 255 175 485 379 683
198 192 434 318 681 362 90 16 340 5 430 -19z m-8376 -27 c494 -88 943 -537
1036 -1039 24 -126 17 -386 -14 -500 -70 -268 -268 -503 -536 -637 -517 -260
-1166 -102 -1499 365 -237 333 -293 833 -135 1212 63 151 187 309 314 400 95
68 262 152 360 180 149 43 302 49 474 19z"/>
</g>
</svg>
